<?xml version="1.0" standalone="no"?>
<!DOCTYPE svg PUBLIC "-//W3C//DTD SVG 20010904//EN"
 "http://www.w3.org/TR/2001/REC-SVG-20010904/DTD/svg10.dtd">
<svg version="1.0" xmlns="http://www.w3.org/2000/svg"
 width="300.000000pt" height="305.000000pt" viewBox="0 0 300.000000 305.000000"
 preserveAspectRatio="xMidYMid meet">
<metadata>
Created by potrace 1.10, written by Peter Selinger 2001-2011
</metadata>
<g transform="translate(0.000000,305.000000) scale(0.100000,-0.100000)"
fill="#000000" stroke="none">
<path d="M1630 1540 l0 -240 25 0 25 0 0 240 0 240 -25 0 -25 0 0 -240z"/>
<path d="M1165 1745 c-25 -24 -25 -26 -25 -205 l0 -182 29 -29 c25 -24 38 -29
78 -29 101 0 115 32 111 253 -3 159 -4 166 -27 191 -21 22 -33 26 -83 26 -49
0 -63 -4 -83 -25z m126 -25 c18 -10 19 -23 19 -179 0 -191 -1 -194 -72 -189
l-43 3 -3 174 c-2 119 1 178 9 187 13 16 62 18 90 4z"/>
<path d="M1740 1730 c0 -25 4 -30 25 -30 21 0 25 5 25 30 0 25 -4 30 -25 30
-21 0 -25 -5 -25 -30z"/>
<path d="M960 1673 c-35 -12 -40 -35 -40 -181 0 -79 4 -152 10 -162 14 -26 57
-34 86 -15 32 20 34 19 34 -14 0 -47 -10 -61 -42 -61 -21 0 -31 6 -35 20 -3
13 -14 20 -29 20 -30 0 -32 -27 -3 -64 27 -34 94 -37 127 -6 21 20 22 27 22
243 0 216 -1 223 -20 223 -11 0 -20 -6 -20 -13 0 -17 -10 -16 -34 2 -21 16
-31 17 -56 8z m68 -59 c20 -14 22 -23 22 -121 0 -85 -3 -110 -17 -125 -17 -19
-62 -25 -64 -8 -4 53 -1 249 5 258 10 16 27 15 54 -4z"/>
<path d="M1406 1673 c-3 -4 -6 -89 -6 -190 l0 -183 25 0 25 0 0 153 c0 152 0
154 24 167 52 27 56 15 56 -160 l0 -160 25 0 25 0 0 165 c0 163 0 166 -25 190
-28 29 -42 31 -74 9 -14 -10 -26 -13 -30 -7 -8 13 -38 23 -45 16z"/>
<path d="M1740 1489 l0 -189 25 0 25 0 0 184 0 184 -25 4 -25 5 0 -188z"/>
<path d="M1850 1489 c0 -189 0 -190 22 -187 21 3 21 6 19 149 -2 143 -2 147
21 163 29 21 54 20 63 -1 3 -10 5 -83 4 -163 -2 -142 -2 -145 19 -148 22 -3
22 -2 22 163 0 91 -4 175 -10 185 -14 27 -57 34 -87 14 -15 -9 -28 -12 -32 -7
-3 5 -14 12 -23 16 -17 6 -18 -7 -18 -184z"/>
<path d="M2120 1674 c-35 -14 -40 -36 -40 -184 0 -169 4 -180 71 -187 63 -7
90 16 97 85 4 50 4 52 -21 52 -23 0 -26 -4 -29 -42 -3 -42 -4 -43 -38 -43
l-35 0 -3 63 -3 62 67 0 66 0 -4 80 c-2 56 -8 84 -19 95 -17 17 -84 28 -109
19z m78 -96 l3 -48 -40 0 -41 0 0 43 c0 52 5 59 45 55 28 -3 30 -6 33 -50z"/>
</g>
</svg>
